<svg width="36" height="36" viewBox="0 0 36 36" fill="none" xmlns="http://www.w3.org/2000/svg">
<g clip-path="url(#clip0_803_295)">
<path d="M11.7788 19.0938C10.0826 19.0938 8.70264 20.4738 8.70264 22.17C8.70264 23.5068 9.55993 24.6465 10.7534 25.0698V28.3223C10.7534 28.8886 11.2125 29.3477 11.7788 29.3477C12.3451 29.3477 12.8042 28.8886 12.8042 28.3223V25.0698C13.9977 24.6465 14.855 23.5068 14.855 22.17C14.855 20.4738 13.475 19.0938 11.7788 19.0938ZM11.7788 23.1954C11.2134 23.1954 10.7534 22.7354 10.7534 22.17C10.7534 21.6046 11.2134 21.1446 11.7788 21.1446C12.3442 21.1446 12.8042 21.6046 12.8042 22.17C12.8042 22.7354 12.3442 23.1954 11.7788 23.1954Z" fill="#006743"/>
<path d="M29.5235 25.2462C29.9468 26.4396 31.0866 27.2969 32.4233 27.2969C34.1195 27.2969 35.4995 25.917 35.4995 24.2208C35.4995 22.5246 34.1195 21.1446 32.4233 21.1446C31.0866 21.1446 29.9468 22.002 29.5235 23.1954H23.0581V21.1446H28.3218C28.5856 21.1446 28.8393 21.0429 29.03 20.8606L31.1633 18.8228C31.5481 18.9963 31.9744 19.0938 32.4233 19.0938C34.1195 19.0938 35.4995 17.7138 35.4995 16.0176C35.4995 14.3214 34.1195 12.9415 32.4233 12.9415C30.7271 12.9415 29.3472 14.3214 29.3472 16.0176C29.3472 16.5165 29.4673 16.9875 29.6789 17.4046L27.9107 19.0938H23.0581V18.0684C23.0581 16.7317 22.2008 15.5919 21.0073 15.1686V9.72858C21.0073 4.63997 16.8674 0.500061 11.7788 0.500061C6.69021 0.500061 2.55029 4.63997 2.55029 9.72858V15.1686C1.35681 15.5919 0.499512 16.7317 0.499512 18.0684V30.3731C0.499512 32.0693 1.87948 33.4493 3.57568 33.4493H19.9819C21.6781 33.4493 23.0581 32.0693 23.0581 30.3731V29.3477H27.845L29.5384 31.3564C29.4149 31.6891 29.3472 32.0487 29.3472 32.4239C29.3472 34.1201 30.7271 35.5001 32.4233 35.5001C34.1195 35.5001 35.4995 34.1201 35.4995 32.4239C35.4995 30.7277 34.1195 29.3477 32.4233 29.3477C31.8607 29.3477 31.3334 29.5002 30.8792 29.765L29.1058 27.6614C28.9109 27.4303 28.6241 27.2969 28.3218 27.2969H23.0581V25.2462H29.5235ZM32.4233 23.1954C32.9887 23.1954 33.4487 23.6554 33.4487 24.2208C33.4487 24.7862 32.9887 25.2462 32.4233 25.2462C31.8579 25.2462 31.3979 24.7862 31.3979 24.2208C31.3979 23.6554 31.8579 23.1954 32.4233 23.1954ZM32.4233 14.9922C32.9887 14.9922 33.4487 15.4522 33.4487 16.0176C33.4487 16.583 32.9887 17.043 32.4233 17.043C31.8579 17.043 31.3979 16.583 31.3979 16.0176C31.3979 15.4522 31.8579 14.9922 32.4233 14.9922ZM4.60107 9.72858C4.60107 5.77077 7.82101 2.55084 11.7788 2.55084C15.7366 2.55084 18.9565 5.77077 18.9565 9.72858V14.9922H16.9058V9.72858C16.9058 6.90157 14.6058 4.60162 11.7788 4.60162C8.95181 4.60162 6.65186 6.90157 6.65186 9.72858V14.9922H4.60107V9.72858ZM14.855 9.72858V14.9922H8.70264V9.72858C8.70264 8.03238 10.0826 6.6524 11.7788 6.6524C13.475 6.6524 14.855 8.03238 14.855 9.72858ZM21.0073 30.3731C21.0073 30.9385 20.5473 31.3985 19.9819 31.3985H3.57568C3.01028 31.3985 2.55029 30.9385 2.55029 30.3731V18.0684C2.55029 17.503 3.01028 17.043 3.57568 17.043H19.9819C20.5473 17.043 21.0073 17.503 21.0073 18.0684V30.3731ZM32.4233 31.3985C32.9887 31.3985 33.4487 31.8585 33.4487 32.4239C33.4487 32.9893 32.9887 33.4493 32.4233 33.4493C31.8579 33.4493 31.3979 32.9893 31.3979 32.4239C31.3979 31.8585 31.8579 31.3985 32.4233 31.3985Z" fill="#006743"/>
</g>
<defs>
<clipPath id="clip0_803_295">
<rect width="35" height="35" fill="white" transform="translate(0.499512 0.500061)"/>
</clipPath>
</defs>
</svg>
