<svg width="36" height="36" viewBox="0 0 36 36" fill="none" xmlns="http://www.w3.org/2000/svg">
<g id="fi_3467138" clip-path="url(#clip0_803_308)">
<g id="Group">
<path id="Vector" d="M34.8633 8.04681L18.3887 0.591261C18.1194 0.469377 17.8106 0.469718 17.5417 0.591945L1.13545 8.04749C0.769321 8.21388 0.534302 8.57885 0.534302 8.98101V34.4746C0.534302 35.0409 0.993403 35.5 1.55969 35.5H34.4406C35.0068 35.5 35.4659 35.0409 35.4659 34.4746V8.98101C35.4659 8.5783 35.2302 8.21278 34.8633 8.04681ZM24.46 29.3477C25.0263 29.3477 25.4854 28.8886 25.4854 28.3223V27.2969H27.5362V33.4492H21.3838V27.2969H23.4346V28.3223C23.4346 28.8886 23.8937 29.3477 24.46 29.3477ZM27.5362 25.2461H20.3585C19.7922 25.2461 19.3331 25.7052 19.3331 26.2715V33.4492H16.5987C16.5987 31.821 16.5987 19.5524 16.5987 18.0684C16.5987 17.5021 16.1396 17.043 15.5733 17.043H8.39556V14.9922H27.5362V25.2461ZM8.39556 25.2461V19.0938H10.4463V20.1191C10.4463 20.6854 10.9054 21.1445 11.4717 21.1445C12.038 21.1445 12.4971 20.6854 12.4971 20.1191V19.0938H14.5479V25.2461H8.39556ZM8.39556 27.2969H10.4463V28.3223C10.4463 28.8886 10.9054 29.3477 11.4717 29.3477C12.038 29.3477 12.4971 28.8886 12.4971 28.3223V27.2969H14.5479V33.4492H8.39556V27.2969ZM33.4151 33.4492H29.587V13.9668C29.587 13.4005 29.1279 12.9414 28.5616 12.9414H7.37017C6.80388 12.9414 6.34478 13.4005 6.34478 13.9668V33.4492H2.58501V9.64136L17.9668 2.65134L33.4151 9.64252V33.4492Z" fill="#006743"/>
<path id="Vector_2" d="M13.8643 8.49805C13.8643 9.06434 14.3234 9.52344 14.8896 9.52344H21.042C21.6083 9.52344 22.0674 9.06434 22.0674 8.49805C22.0674 7.93176 21.6083 7.47266 21.042 7.47266H14.8896C14.3234 7.47266 13.8643 7.93176 13.8643 8.49805Z" fill="#006743"/>
</g>
</g>
<defs>
<clipPath id="clip0_803_308">
<rect width="35" height="35" fill="white" transform="translate(0.5 0.5)"/>
</clipPath>
</defs>
</svg>
