<svg width="36" height="36" viewBox="0 0 36 36" fill="none" xmlns="http://www.w3.org/2000/svg">
<g id="fi_12538689" clip-path="url(#clip0_803_324)">
<g id="Group">
<path id="Vector" d="M4.0566 24.6594C3.05739 22.5713 2.55078 20.3308 2.55078 18C2.55078 9.48126 9.48126 2.55078 18 2.55078C21.3848 2.55078 24.6034 3.63188 27.2615 5.63085L24.703 5.96766C24.1416 6.04155 23.7464 6.55664 23.8203 7.11808C23.8941 7.67958 24.4092 8.07477 24.9707 8.00087L29.7831 7.36731C30.3445 7.29342 30.7398 6.77833 30.6659 6.21689L30.0323 1.40453C29.9584 0.843096 29.4433 0.447842 28.8819 0.521738H28.8818C28.3204 0.595635 27.9251 1.11072 27.999 1.67216L28.284 3.83696C25.3138 1.67018 21.747 0.5 18 0.5C13.3256 0.5 8.93097 2.32027 5.62559 5.62559C2.32034 8.93097 0.5 13.3256 0.5 18C0.5 20.6396 1.07422 23.178 2.2068 25.5447C2.45125 26.0555 3.06348 26.2715 3.57433 26.027C4.08511 25.7826 4.30105 25.1703 4.0566 24.6594Z" fill="#006743"/>
<path id="Vector_2" d="M33.7932 10.4553C33.5488 9.94444 32.9366 9.72849 32.4257 9.97294C31.9149 10.2174 31.699 10.8296 31.9434 11.3405C32.9427 13.4286 33.4493 15.6692 33.4493 18C33.4493 26.5187 26.5188 33.4492 18 33.4492C14.6156 33.4492 11.3978 32.3677 8.74002 30.3689L11.2969 30.0323C11.8584 29.9584 12.2536 29.4433 12.1797 28.8819C12.1058 28.3204 11.5907 27.9252 11.0293 27.9991L6.21687 28.6327C5.65544 28.7066 5.26018 29.2216 5.33408 29.7831L5.9677 34.5954C6.0416 35.1569 6.55669 35.5521 7.11812 35.4782C7.67956 35.4043 8.07488 34.8892 8.00098 34.3278L7.71592 32.1627C10.6862 34.3296 14.2529 35.5 18 35.5C22.6745 35.5 27.0691 33.6797 30.3745 30.3744C33.6797 27.069 35.5 22.6744 35.5 18C35.5 15.3603 34.9258 12.822 33.7932 10.4553Z" fill="#006743"/>
<path id="Vector_3" d="M27.5164 16.4525L27.9971 16.1749C28.4875 15.8917 28.6556 15.2646 28.3724 14.7742L25.9798 10.6301C25.6967 10.1397 25.0696 9.9716 24.5792 10.2548L24.0669 10.5506C23.5079 10.8733 22.8392 10.8698 22.2826 10.5399C21.7381 10.2171 21.4179 9.61771 21.4179 8.98477V8.42969C21.4179 7.8634 20.9588 7.4043 20.3926 7.4043H15.6074C15.0411 7.4043 14.582 7.8634 14.582 8.42969V8.98497C14.582 9.61784 14.2618 10.2171 13.7174 10.5398C13.1608 10.8697 12.4921 10.8733 11.9331 10.5505L11.4208 10.2547C10.9304 9.9716 10.3033 10.1396 10.0201 10.63L7.62753 14.7741C7.34439 15.2645 7.51242 15.8917 8.00283 16.1748L8.4836 16.4524C9.03177 16.7689 9.39073 17.3459 9.39791 17.9787C9.40529 18.6257 9.07402 19.2065 8.51504 19.5293L8.00283 19.825C7.51242 20.1081 7.34439 20.7353 7.62753 21.2257L10.0201 25.3698C10.3033 25.8602 10.9304 26.0283 11.4208 25.7451L11.9331 25.4493C12.4921 25.1265 13.1607 25.1301 13.7173 25.46C14.2618 25.7829 14.582 26.3823 14.582 27.0152V27.5703C14.582 28.1366 15.0411 28.5957 15.6074 28.5957H20.3926C20.9588 28.5957 21.4179 28.1366 21.4179 27.5703V27.015C21.4179 26.3822 21.7381 25.7829 22.2826 25.4602C22.8391 25.1303 23.5078 25.1267 24.0669 25.4495L24.5792 25.7453C25.0696 26.0284 25.6967 25.8604 25.9798 25.37L28.3724 21.2259C28.6556 20.7355 28.4875 20.1083 27.9971 19.8252L27.4849 19.5295C26.9259 19.2067 26.5947 18.6259 26.602 17.9789C26.6092 17.3459 26.9682 16.7689 27.5164 16.4525ZM26.0956 21.0678L24.7046 23.4771C23.5972 22.9912 22.3437 23.0567 21.2755 23.6734C20.2073 24.2901 19.524 25.3428 19.391 26.5449H16.609C16.476 25.3429 15.7927 24.2902 14.7245 23.6734C13.6562 23.0567 12.4028 22.9912 11.2954 23.4771L9.90438 21.0678C10.8788 20.3516 11.4489 19.2333 11.4489 18C11.4489 16.7667 10.8788 15.6484 9.90438 14.9322L11.2954 12.5229C12.4028 13.0088 13.6564 12.9433 14.7245 12.3266C15.7927 11.7099 16.476 10.6572 16.609 9.45508H19.391C19.524 10.6571 20.2073 11.7098 21.2755 12.3266C22.3438 12.9433 23.5972 13.0087 24.7046 12.5229L26.0956 14.9322C25.1212 15.6484 24.5511 16.7667 24.5511 18C24.5511 19.2333 25.1212 20.3516 26.0956 21.0678Z" fill="#006743"/>
<path id="Vector_4" d="M18 13.5566C15.5499 13.5566 13.5566 15.5499 13.5566 18C13.5566 20.4501 15.5499 22.4434 18 22.4434C20.4501 22.4434 22.4434 20.4501 22.4434 18C22.4434 15.5499 20.4501 13.5566 18 13.5566ZM18 20.3926C16.6807 20.3926 15.6074 19.3193 15.6074 18C15.6074 16.6807 16.6807 15.6074 18 15.6074C19.3193 15.6074 20.3926 16.6807 20.3926 18C20.3926 19.3193 19.3193 20.3926 18 20.3926Z" fill="#006743"/>
</g>
</g>
<defs>
<clipPath id="clip0_803_324">
<rect width="35" height="35" fill="white" transform="translate(0.5 0.5)"/>
</clipPath>
</defs>
</svg>
