<svg width="36" height="36" viewBox="0 0 36 36" fill="none" xmlns="http://www.w3.org/2000/svg">
<g id="fi_1865153" clip-path="url(#clip0_803_336)">
<path id="Vector" d="M35.4159 34.0654L29.2398 19.656C29.0775 19.2776 28.7052 19.0322 28.2938 19.0322H24.3714C25.9589 16.2588 27.2644 13.1893 27.2644 10.5922C27.2644 -2.7822 8.73576 -2.94536 8.73576 10.5922C8.73576 13.1893 10.0413 16.2588 11.6288 19.0322H7.70636C7.29461 19.0322 6.92237 19.2776 6.76028 19.656L0.584172 34.0654C0.293644 34.7431 0.791386 35.5001 1.53025 35.5001H34.4699C35.2071 35.5001 35.707 34.7447 35.4159 34.0654ZM27.6147 21.0907L30.6623 28.2006C30.567 28.2503 20.6479 33.401 20.5769 33.4416H18.4222C18.3678 33.3807 18.8308 33.8461 12.122 27.1381L15.8483 25.231C16.608 26.2006 17.1402 26.8166 17.2233 26.9122C17.6334 27.3843 18.367 27.3835 18.7766 26.9122C18.9488 26.7141 21.0471 24.2828 23.1142 21.0907H27.6147ZM18.0001 2.56398C21.4704 2.56398 25.2056 5.07645 25.2056 10.5922C25.2056 15.23 20.0068 22.1319 18.0001 24.6227C15.9933 22.1316 10.7946 15.23 10.7946 10.5922C10.7946 5.04655 14.4133 2.56398 18.0001 2.56398ZM8.38515 21.0907C13.3716 21.0907 12.805 21.0915 12.8849 21.0891C13.4646 21.9845 14.0467 22.82 14.5882 23.5634L5.28441 28.3251L8.38515 21.0907ZM4.01469 31.2875L10.1964 28.1237L15.5151 33.4416H3.09131L4.01469 31.2875ZM25.0384 33.4416L31.4757 30.0979L32.9088 33.4416H25.0384Z" fill="#006743"/>
<path id="Vector_2" d="M21.0879 9.76883C21.0879 8.06625 19.7026 6.68091 18 6.68091C16.2971 6.68091 14.9118 8.06625 14.9118 9.76883C14.9118 11.4714 16.2971 12.8565 18 12.8565C19.7026 12.8565 21.0879 11.4714 21.0879 9.76883ZM16.9706 9.76883C16.9706 9.20113 17.4323 8.73943 18 8.73943C18.5674 8.73943 19.0294 9.20113 19.0294 9.76883C19.0294 10.3363 18.5674 10.798 18 10.798C17.4323 10.798 16.9706 10.3363 16.9706 9.76883Z" fill="#006743"/>
</g>
<defs>
<clipPath id="clip0_803_336">
<rect width="35" height="35" fill="white" transform="translate(0.5 0.5)"/>
</clipPath>
</defs>
</svg>
