<svg width="36" height="36" viewBox="0 0 36 36" fill="none" xmlns="http://www.w3.org/2000/svg">
<g clip-path="url(#clip0_803_345)">
<path d="M34.7961 14.9646L32.2223 14.1067C31.8972 12.9174 31.4233 11.7755 30.8081 10.6996L32.023 8.26973C32.2211 7.87345 32.1435 7.39473 31.8302 7.0815L28.9186 4.16987C28.6053 3.85658 28.1267 3.77899 27.7303 3.97696L25.3004 5.19198C24.2245 4.57675 23.0826 4.10281 21.8934 3.77776L21.0355 1.20396C20.8953 0.783555 20.5019 0.5 20.0588 0.5H15.9412C15.4981 0.5 15.1048 0.783555 14.9646 1.2039L14.1067 3.7777C12.9175 4.10281 11.7757 4.57668 10.6997 5.19191L8.26973 3.97689C7.87338 3.77865 7.39473 3.85638 7.08144 4.1698L4.16987 7.08144C3.85658 7.39473 3.77893 7.87338 3.97703 8.26966L5.19191 10.6995C4.57675 11.7755 4.10274 12.9173 3.7777 14.1066L1.2039 14.9645C0.783555 15.1047 0.5 15.498 0.5 15.9412V20.0588C0.5 20.5019 0.783555 20.8952 1.2039 21.0354L3.7777 21.8933C4.10281 23.0826 4.57675 24.2245 5.19191 25.3004L3.97703 27.7303C3.77886 28.1266 3.85651 28.6053 4.16987 28.9185L7.08144 31.8301C7.39479 32.1433 7.87338 32.2209 8.26966 32.023L10.6996 30.808C11.7755 31.4233 12.9174 31.8972 14.1067 32.2222L14.9646 34.796C15.1047 35.2164 15.498 35.4999 15.9412 35.4999H20.0588C20.5019 35.4999 20.8952 35.2164 21.0354 34.796L21.8933 32.2222C23.0825 31.8971 24.2244 31.4233 25.3004 30.808L27.7303 32.023C28.1266 32.2212 28.6053 32.1435 28.9185 31.8301L31.8301 28.9185C32.1433 28.6052 32.221 28.1266 32.0228 27.7303L30.8079 25.3004C31.4231 24.2245 31.8971 23.0826 32.2222 21.8933L34.796 21.0354C35.2163 20.8953 35.4999 20.5019 35.4999 20.0588V15.9412C35.5 15.498 35.2164 15.1047 34.7961 14.9646ZM33.4412 19.3169L31.0365 20.1185C30.6964 20.2319 30.4397 20.5141 30.359 20.8635C30.0451 22.2234 29.5079 23.5178 28.7622 24.7108C28.5721 25.015 28.5541 25.3961 28.7144 25.7168L29.8498 27.9874L27.9875 29.8498L25.7168 28.7144C25.3961 28.5541 25.015 28.5722 24.7108 28.7622C23.5178 29.508 22.2233 30.0452 20.8635 30.3591C20.5141 30.4398 20.2319 30.6964 20.1185 31.0367L19.3169 33.4413H16.6832L15.8817 31.0367C15.7683 30.6965 15.486 30.4398 15.1366 30.3591C13.7768 30.0452 12.4824 29.508 11.2893 28.7622C10.9852 28.5723 10.6041 28.5542 10.2833 28.7144L8.01263 29.8498L6.15038 27.9874L7.28569 25.7168C7.44606 25.3961 7.42795 25.015 7.23791 24.7108C6.49225 23.5178 5.95501 22.2234 5.6411 20.8635C5.56044 20.5141 5.30375 20.2319 4.96359 20.1185L2.55898 19.3169V16.6831L4.96359 15.8815C5.30375 15.7681 5.56044 15.4859 5.6411 15.1365C5.95501 13.7766 6.49225 12.4822 7.23791 11.2892C7.42802 10.985 7.44606 10.6039 7.28569 10.2832L6.15038 8.01249L8.0127 6.15018L10.2834 7.28556C10.6041 7.44579 10.9852 7.42774 11.2894 7.23777C12.4824 6.49211 13.7769 5.9548 15.1367 5.64097C15.4861 5.5603 15.7683 5.30368 15.8817 4.96339L16.6833 2.55878H19.317L20.1185 4.96339C20.2319 5.30361 20.5142 5.56023 20.8636 5.64097C22.2234 5.95487 23.5178 6.49211 24.7109 7.23777C25.015 7.42774 25.3961 7.44579 25.7169 7.28556L27.9876 6.15018L29.8499 8.01249L28.7146 10.2832C28.5542 10.6039 28.5723 10.985 28.7624 11.2892C29.508 12.4822 30.0453 13.7766 30.3592 15.1365C30.4398 15.4859 30.6965 15.7681 31.0367 15.8815L33.4413 16.6831V19.3169H33.4412Z" fill="#006743"/>
<path d="M18.0043 7.4043C12.1618 7.4043 7.40857 12.1575 7.40857 18C7.40857 23.8425 12.1618 28.5957 18.0043 28.5957C23.8467 28.5957 28.6 23.8425 28.6 18C28.6 12.1575 23.8468 7.4043 18.0043 7.4043ZM18.0043 26.5449C13.2926 26.5449 9.45935 22.7117 9.45935 18C9.45935 13.2883 13.2926 9.45508 18.0043 9.45508C22.7159 9.45508 26.5492 13.2883 26.5492 18C26.5492 22.7117 22.716 26.5449 18.0043 26.5449Z" fill="#006743"/>
<path d="M19.1958 17.2229C19.0379 17.1671 18.877 17.1091 18.716 17.049V14.2387C19.0407 14.3386 19.2067 14.5022 19.2261 14.5223C19.5056 14.839 19.9889 14.871 20.3078 14.593C20.6281 14.314 20.6615 13.8282 20.3824 13.508C20.107 13.192 19.5322 12.7943 18.716 12.6661V12.1895C18.716 11.7647 18.3717 11.4204 17.947 11.4204C17.5223 11.4204 17.1779 11.7647 17.1779 12.1895V12.7536C17.1126 12.7702 17.0467 12.7879 16.9797 12.8082C16.0177 13.0979 15.2992 13.9198 15.1044 14.9529C14.926 15.8992 15.232 16.8139 15.9029 17.3401C16.2314 17.5978 16.6344 17.834 17.1779 18.0807V21.6937C16.7601 21.6452 16.4596 21.5178 15.9789 21.2033C15.6236 20.971 15.1469 21.0706 14.9144 21.426C14.6819 21.7814 14.7815 22.258 15.1369 22.4905C15.9346 23.0122 16.492 23.1864 17.1779 23.2388V23.8105C17.1779 24.2353 17.5222 24.5796 17.9469 24.5796C18.3716 24.5796 18.716 24.2353 18.716 23.8105V23.1676C20.0961 22.8387 20.9815 21.6695 21.1754 20.5163C21.4254 19.0292 20.6484 17.7363 19.1958 17.2229ZM17.1779 16.3512C17.0585 16.2793 16.9487 16.2055 16.8522 16.1299C16.6382 15.962 16.5454 15.6119 16.6159 15.2377C16.6722 14.939 16.8483 14.5887 17.1779 14.3897V16.3512ZM19.6586 20.2613C19.5754 20.7565 19.2557 21.2795 18.716 21.5446V18.6855C19.7693 19.0773 19.7044 19.9888 19.6586 20.2613Z" fill="#006743"/>
</g>
<defs>
<clipPath id="clip0_803_345">
<rect width="35" height="35" fill="white" transform="translate(0.5 0.5)"/>
</clipPath>
</defs>
</svg>
