<svg width="35" height="35" viewBox="0 0 35 35" fill="none" xmlns="http://www.w3.org/2000/svg">
<g id="fi_3628961">
<g id="Group">
<path id="Vector" d="M20.5762 20.5762C20.5762 18.88 19.1962 17.5 17.5 17.5C15.8038 17.5 14.4238 18.88 14.4238 20.5762C14.4238 22.2724 15.8038 23.6523 17.5 23.6523C19.1962 23.6523 20.5762 22.2724 20.5762 20.5762ZM17.5 21.6016C16.9346 21.6016 16.4746 21.1416 16.4746 20.5762C16.4746 20.0108 16.9346 19.5508 17.5 19.5508C18.0654 19.5508 18.5254 20.0108 18.5254 20.5762C18.5254 21.1416 18.0654 21.6016 17.5 21.6016Z" fill="#006743"/>
<path id="Vector_2" d="M35 22.627C35 22.5293 34.9807 22.4007 34.9457 22.2979C34.9019 22.1685 33.8706 19.1771 31.3575 16.0828L33.1371 14.7282C33.5876 14.3852 33.6749 13.7419 33.3319 13.2913C32.9889 12.8406 32.3455 12.7534 31.8949 13.0964L29.9835 14.5514C28.7187 13.275 27.3349 12.2222 25.8496 11.4038L27.2114 8.93635C27.485 8.44054 27.3049 7.81676 26.8091 7.54312C26.3132 7.2694 25.6895 7.4496 25.4159 7.94534L23.9924 10.5243C22.2744 9.83507 20.444 9.43086 18.5254 9.32524V6.2207C18.5254 5.65441 18.0663 5.19531 17.5 5.19531C16.9337 5.19531 16.4746 5.65441 16.4746 6.2207V9.32531C14.556 9.43093 12.7256 9.83514 11.0076 10.5244L9.58412 7.94541C9.31041 7.4496 8.68643 7.26954 8.19089 7.54318C7.69508 7.81683 7.51495 8.44061 7.78859 8.93642L9.15045 11.4038C7.66507 12.2223 6.28127 13.2752 5.01648 14.5515L3.10509 13.0965C2.65453 12.7535 2.01113 12.8407 1.66811 13.2913C1.32508 13.7419 1.41237 14.3853 1.86293 14.7283L3.64246 16.0829C1.12937 19.1772 0.0980957 22.1686 0.0542773 22.2979C0.0230371 22.3895 0 22.5196 0 22.627C0 23.1924 0.464502 23.6523 1.02539 23.6523C2.43346 23.6523 4.04018 24.6438 5.90064 25.7919C9.52855 28.0304 12.8181 29.8047 17.5 29.8047C22.1616 29.8047 25.4789 28.0258 29.0994 25.7919C30.9578 24.6451 32.563 23.6547 33.9699 23.6525C34.5421 23.6556 35 23.1852 35 22.627ZM10.8564 12.8127C11.1182 12.7328 13.5125 11.3477 17.5 11.3477C21.4963 11.3477 23.8802 12.7312 24.1397 12.8116C27.5513 14.4542 30.2156 17.4199 31.9871 20.7319C29.2149 18.5841 25.8617 13.3984 17.5 13.3984C9.13418 13.3984 5.78122 18.5896 3.00897 20.735C4.78338 17.4166 7.46204 14.448 10.8564 12.8127ZM23.6523 21.6016C23.6523 23.5309 22.7594 25.2552 21.3655 26.3841C20.8004 24.7941 19.2814 23.6523 17.5 23.6523C15.7186 23.6523 14.1996 24.7941 13.6345 26.3841C12.2406 25.2552 11.3477 23.5309 11.3477 21.6016C11.3477 18.2092 14.1076 15.4492 17.5 15.4492C20.8924 15.4492 23.6523 18.2092 23.6523 21.6016ZM17.5 27.7539C16.8097 27.7539 16.1283 27.6391 15.4782 27.4122C15.6414 26.4436 16.4856 25.7031 17.5 25.7031C18.5144 25.7031 19.3586 26.4436 19.5218 27.4122C18.8727 27.6388 18.1912 27.7539 17.5 27.7539ZM4.16493 22.4334C4.83793 21.9236 5.49732 21.2952 6.19575 20.6294C7.42137 19.4609 8.79895 18.148 10.6221 17.1363C9.78441 18.422 9.29688 19.9558 9.29688 21.6016C9.29688 23.2766 9.80191 24.8356 10.6671 26.1353C9.33249 25.4996 8.1239 24.7539 6.97758 24.0466C5.99245 23.4387 5.06967 22.8695 4.16493 22.4334ZM28.0224 24.0466C26.8761 24.7539 25.6675 25.4996 24.3329 26.1353C25.1981 24.8356 25.7031 23.2766 25.7031 21.6016C25.7031 19.9558 25.2156 18.422 24.3779 17.1362C26.2011 18.148 27.5786 19.4609 28.8042 20.6293C29.5027 21.2952 30.1621 21.9235 30.8351 22.4333C29.9303 22.8695 29.0075 23.4387 28.0224 24.0466Z" fill="#006743"/>
</g>
</g>
</svg>
