<svg width="25" height="19" viewBox="0 0 25 19" fill="none" xmlns="http://www.w3.org/2000/svg">
<line x1="4.5" y1="3" x2="4.5" y2="16" stroke="white"/>
<line x1="21.5" y1="3" x2="21.5" y2="16" stroke="white"/>
<line x1="10.5" y1="3" x2="10.5" y2="16" stroke="white"/>
<line x1="7.5" y1="3" x2="7.5" y2="12" stroke="white"/>
<line x1="15.5" y1="3" x2="15.5" y2="12" stroke="white"/>
<line x1="13.5" y1="3" x2="13.5" y2="12" stroke="white"/>
<line x1="18.5" y1="3" x2="18.5" y2="12" stroke="white"/>
<line x1="7.5" y1="14" x2="7.5" y2="16" stroke="white"/>
<line x1="15.5" y1="14" x2="15.5" y2="16" stroke="white"/>
<line x1="13.5" y1="14" x2="13.5" y2="16" stroke="white"/>
<line x1="18.5" y1="14" x2="18.5" y2="16" stroke="white"/>
<line x1="20" y1="0.5" x2="25" y2="0.5" stroke="white"/>
<line y1="0.5" x2="5" y2="0.5" stroke="white"/>
<line x1="20" y1="18.5" x2="25" y2="18.5" stroke="white"/>
<line y1="18.5" x2="5" y2="18.5" stroke="white"/>
<line x1="24.5" y1="1" x2="24.5" y2="5" stroke="white"/>
<line x1="0.5" y1="1" x2="0.5" y2="5" stroke="white"/>
<line x1="24.5" y1="14" x2="24.5" y2="18" stroke="white"/>
<line x1="0.5" y1="14" x2="0.5" y2="18" stroke="white"/>
</svg>
