<svg width="25" height="25" viewBox="0 0 25 25" fill="none" xmlns="http://www.w3.org/2000/svg">
<g clip-path="url(#clip0_819_27)">
<path d="M0.5 18H24" stroke="white" stroke-linecap="square"/>
<path d="M24 18V21.5" stroke="white" stroke-linecap="square"/>
<path d="M24 21.5H0.5" stroke="white" stroke-linecap="square"/>
<path d="M0.5 21.5V18" stroke="white" stroke-linecap="square"/>
<path d="M2 22V24" stroke="white" stroke-linecap="square"/>
<path d="M6.5 21.5V23.5" stroke="white" stroke-linecap="square"/>
<path d="M6.5 24H2" stroke="white" stroke-linecap="square"/>
<path d="M10.5 21.5V24" stroke="white" stroke-linecap="square"/>
<path d="M14.5 21.5V24" stroke="white" stroke-linecap="square"/>
<path d="M10.5 24H14.5" stroke="white" stroke-linecap="square"/>
<path d="M18.5 21.5V24" stroke="white" stroke-linecap="square"/>
<path d="M22.5 21.5V24" stroke="white" stroke-linecap="square"/>
<path d="M18.5 24H22.5" stroke="white" stroke-linecap="square"/>
<path d="M12.5 9.5V18" stroke="white" stroke-linecap="square"/>
<path d="M21.5 9.5V17.5" stroke="white" stroke-linecap="square"/>
<path d="M3.5 9.5V18" stroke="white" stroke-linecap="square"/>
<path d="M3.5 9.5H21.5" stroke="white" stroke-linecap="square"/>
<path d="M15.5 10V12" stroke="white" stroke-linecap="square"/>
<path d="M18.5 10V12" stroke="white" stroke-linecap="square"/>
<path d="M15.5 12H18.5" stroke="white" stroke-linecap="square"/>
<path d="M6.5 10V12" stroke="white" stroke-linecap="square"/>
<path d="M9.5 10V12" stroke="white" stroke-linecap="square"/>
<path d="M6.5 12H9.5" stroke="white" stroke-linecap="square"/>
<path d="M8 9V1" stroke="white" stroke-linecap="square"/>
<path d="M17 9V1" stroke="white" stroke-linecap="square"/>
<path d="M17 1H8" stroke="white" stroke-linecap="square"/>
<path d="M11 1.5V3.5" stroke="white" stroke-linecap="square"/>
<path d="M14 1.5V3.5" stroke="white" stroke-linecap="square"/>
<path d="M11 3.5H14" stroke="white" stroke-linecap="square"/>
</g>
<defs>
<clipPath id="clip0_819_27">
<rect width="25" height="25" fill="white"/>
</clipPath>
</defs>
</svg>
