<svg width="25" height="21" viewBox="0 0 25 21" fill="none" xmlns="http://www.w3.org/2000/svg">
<line x1="0.5" y1="21" x2="0.5" y2="3" stroke="white"/>
<line x1="24.5" y1="21" x2="24.5" y2="3" stroke="white"/>
<line x1="1" y1="20.5" x2="24" y2="20.5" stroke="white"/>
<line x1="3" y1="6.5" x2="6" y2="6.5" stroke="white"/>
<line x1="24" y1="3.5" x2="17" y2="3.5" stroke="white"/>
<line x1="8" y1="0.5" x2="17" y2="0.5" stroke="white"/>
<line x1="17.5" y1="1.45713e-08" x2="17.5" y2="3" stroke="white"/>
<line x1="1" y1="3.5" x2="2" y2="3.5" stroke="white"/>
<line x1="2.5" x2="2.5" y2="4" stroke="white"/>
<line x1="3" y1="3.5" x2="8" y2="3.5" stroke="white"/>
<line x1="7.5" x2="7.5" y2="3" stroke="white"/>
<line x1="3" y1="0.5" x2="5" y2="0.5" stroke="white"/>
<circle cx="21.75" cy="6.75" r="0.5" fill="white" stroke="white" stroke-width="0.5"/>
<circle cx="13" cy="12" r="2.5" stroke="white"/>
<circle cx="13" cy="12" r="5.5" stroke="white"/>
<line x1="5.5" x2="5.5" y2="3" stroke="white"/>
</svg>
