<svg width="25" height="25" viewBox="0 0 25 25" fill="none" xmlns="http://www.w3.org/2000/svg">
<g clip-path="url(#clip0_512_12664)">
<path d="M24.2676 16.6995H20.8032V1.70874C20.8032 1.30425 20.4753 0.976318 20.0708 0.976318H0.732422C0.32793 0.976318 0 1.30425 0 1.70874V20.8391C0 22.599 1.42437 24.0237 3.18457 24.0237H22.1415C23.7177 24.0237 25 22.7414 25 21.1652V17.4319C25 17.0274 24.6721 16.6995 24.2676 16.6995ZM5.63672 16.6995C5.23223 16.6995 4.9043 17.0274 4.9043 17.4319V18.2649C4.74126 18.2156 4.58999 18.1267 4.46416 18.0009L4.44023 17.977C3.63594 17.1726 2.41855 17.0277 1.46484 17.5412V15.0243L1.91484 14.5743C2.32554 14.1636 2.99375 14.1636 3.40444 14.5743C3.40625 14.5761 3.40811 14.5779 3.40991 14.5797L3.43149 14.6009C3.90669 15.0747 4.5377 15.3355 5.20894 15.3355C5.88057 15.3355 6.51196 15.0744 6.98726 14.6L7.01733 14.5704C7.01865 14.5691 7.01997 14.5678 7.02129 14.5665C7.43198 14.1558 8.1002 14.1558 8.51265 14.5682C9.0353 15.0874 9.62202 15.3741 10.3619 15.3741C11.1209 15.3741 11.7055 15.0736 12.222 14.5572C12.6329 14.1464 13.3013 14.1464 13.7121 14.5572C14.8715 15.7167 16.4407 15.5654 17.3608 14.6455C17.5605 14.446 17.8253 14.3362 18.1064 14.3362C18.6395 14.3362 18.8612 14.6551 19.3384 15.1322V16.6995H5.63672ZM1.46484 10.5858C1.90498 10.1458 2.12988 9.82739 2.65967 9.82739C2.975 9.82739 3.21558 9.95107 3.4313 10.1622C3.90654 10.6361 4.5377 10.8971 5.20898 10.8971C5.88062 10.8971 6.51201 10.6359 6.98731 10.1616L7.01738 10.1319C7.01875 10.1306 7.02017 10.1292 7.02148 10.1278C7.22036 9.92881 7.48477 9.81924 7.76611 9.81924C8.12358 9.81924 8.35176 9.96992 8.58101 10.1977C9.05659 10.6736 9.68906 10.9356 10.3619 10.9356C11.1109 10.9356 11.7026 10.6407 12.2218 10.1184C12.6328 9.70776 13.3013 9.70781 13.7122 10.1183C14.876 11.2821 16.4413 11.1267 17.3608 10.2065C17.7734 9.79443 18.4397 9.79463 18.8513 10.2062L19.3384 10.6933V13.1932C18.3946 12.6617 17.1561 12.7798 16.3254 13.6094C15.9147 14.02 15.2465 14.02 14.8358 13.6094C14.3274 13.101 13.7504 12.7836 12.9671 12.7836C12.2065 12.7836 11.6225 13.0854 11.1071 13.6006C10.908 13.7997 10.6434 13.9094 10.3619 13.9094C10.0068 13.9094 9.77852 13.7609 9.54673 13.5308C9.07119 13.0552 8.43882 12.7933 7.76616 12.7933C7.11089 12.7933 6.49883 13.0264 5.95366 13.5622C5.57217 13.9439 4.92505 14.013 4.4373 13.5356C3.96211 13.0619 3.33096 12.8011 2.65972 12.8011C2.23564 12.8011 1.82773 12.9054 1.46489 13.1015L1.46484 10.5858ZM19.3384 8.7543C18.3948 8.22329 17.1556 8.34126 16.3252 9.17051C16.1263 9.36953 15.8619 9.47915 15.5806 9.47915C15.2051 9.47915 14.9821 9.31665 14.7477 9.08228C13.831 8.16621 12.254 8.00811 11.1071 9.16206C10.908 9.36118 10.6433 9.47085 10.3619 9.47085C10.0044 9.47085 9.77617 9.32017 9.54688 9.09243C8.62915 8.17402 7.06758 8.02891 5.95361 9.12368C5.56509 9.5125 4.9124 9.56055 4.45869 9.11807L4.43706 9.09688C3.61782 8.28047 2.39971 8.15776 1.46484 8.66299V6.14741L1.91504 5.69722C2.29243 5.31958 2.93887 5.24214 3.43164 5.72407C4.35854 6.64766 5.92827 6.76709 7.01738 5.69351C7.01875 5.69214 7.02017 5.69077 7.02148 5.68945C7.43076 5.27983 8.09624 5.27466 8.51265 5.69141C9.65195 6.82314 11.1967 6.71182 12.2218 5.68008C12.6327 5.26948 13.3013 5.26948 13.7121 5.67988C14.8757 6.84385 16.4409 6.68867 17.3608 5.76816C17.7735 5.35605 18.4398 5.35635 18.8512 5.76782L19.3384 6.25493V8.7543ZM19.3384 2.44116V4.31582C18.3948 3.78481 17.1556 3.90278 16.3252 4.73203C16.1263 4.93105 15.8619 5.04067 15.5806 5.04067C15.2051 5.04067 14.9821 4.87817 14.7477 4.6438C13.8286 3.72544 12.2507 3.57256 11.1072 4.72339C10.6962 5.13418 10.0277 5.13423 9.61519 4.72183C9.09277 4.20288 8.5062 3.91592 7.76606 3.91592C7.06162 3.91592 6.46304 4.18496 5.95376 4.68501C5.56538 5.07339 4.91074 5.12007 4.45864 4.67959L4.4373 4.65869C3.61909 3.84253 2.40093 3.71812 1.46484 4.22422V2.44116H19.3384ZM1.46484 20.8391V19.4627L1.91484 19.0127C2.32554 18.6021 2.99375 18.6021 3.40444 19.0127L3.42837 19.0367C3.83604 19.4443 4.35449 19.6909 4.9043 19.7566V20.8391C4.9043 21.7873 4.13281 22.5588 3.18457 22.5588C2.23423 22.5588 1.46484 21.7896 1.46484 20.8391ZM23.5352 21.1651C23.5352 21.9336 22.91 22.5588 22.1415 22.5588H5.86382C6.48428 21.5955 6.36914 21.138 6.36914 18.1643H23.5352V21.1651Z" fill="white"/>
</g>
<defs>
<clipPath id="clip0_512_12664">
<rect width="25" height="25" fill="white"/>
</clipPath>
</defs>
</svg>
