<svg xmlns="http://www.w3.org/2000/svg" width="18" height="18" viewBox="0 0 18 18" fill="none">
    <g clip-path="url(#clip0_661_388)">
        <path d="M8.42095 13.9414C8.44009 13.9605 8.46016 13.9786 8.48111 13.9958C8.49033 14.0034 8.50004 14.0099 8.50947 14.017C8.52136 14.0259 8.53304 14.0352 8.54542 14.0434C8.55698 14.0511 8.56898 14.0578 8.58082 14.0649C8.59184 14.0715 8.60264 14.0785 8.61398 14.0845C8.62614 14.0911 8.63869 14.0966 8.65113 14.1024C8.66285 14.108 8.67442 14.1139 8.68647 14.1188C8.69864 14.1238 8.71102 14.1279 8.72334 14.1323C8.73622 14.1369 8.74887 14.1418 8.76202 14.1458C8.77434 14.1495 8.78689 14.1523 8.79933 14.1554C8.81275 14.1588 8.826 14.1626 8.83964 14.1653C8.85398 14.1681 8.86849 14.1698 8.88294 14.1719C8.89489 14.1736 8.90667 14.1759 8.91884 14.1771C8.94567 14.1797 8.97262 14.1812 8.99956 14.1812C9.02651 14.1812 9.05345 14.1798 9.08024 14.1771C9.09256 14.1759 9.10445 14.1736 9.11662 14.1718C9.13091 14.1698 9.1452 14.1681 9.15938 14.1653C9.17329 14.1626 9.18687 14.1587 9.20051 14.1553C9.21267 14.1522 9.22495 14.1495 9.237 14.1459C9.25042 14.1418 9.26335 14.1368 9.27649 14.1321C9.28855 14.1277 9.30071 14.1238 9.3126 14.1189C9.32487 14.1138 9.3366 14.1079 9.34855 14.1022C9.36082 14.0964 9.3732 14.091 9.3852 14.0845C9.39665 14.0784 9.40745 14.0715 9.41853 14.0648C9.43036 14.0577 9.44236 14.0511 9.45387 14.0433C9.46598 14.0353 9.47738 14.0262 9.489 14.0175C9.49876 14.0102 9.50874 14.0035 9.51824 13.9957C9.53815 13.9794 9.55718 13.9621 9.57545 13.944C9.57633 13.9431 9.57731 13.9424 9.57813 13.9416L13.3964 10.1235C13.7159 9.80396 13.7159 9.28594 13.3964 8.96641C13.0769 8.64694 12.5589 8.64689 12.2393 8.96636L9.81774 11.3878V1.3631C9.81774 0.911249 9.45142 0.544922 8.99956 0.544922C8.54771 0.544922 8.18138 0.911249 8.18138 1.3631V11.3877L5.76 8.96641C5.44053 8.64688 4.92245 8.64688 4.60293 8.96641C4.2834 9.28594 4.2834 9.80396 4.60293 10.1235L8.42095 13.9414Z" fill="white"/>
        <path d="M17.1818 8.72656C16.73 8.72656 16.3636 9.09289 16.3636 9.54474V15.8175H1.63636V9.54474C1.63636 9.09289 1.27004 8.72656 0.818182 8.72656C0.366327 8.72656 0 9.09289 0 9.54474V16.6357C0 17.0875 0.366327 17.4538 0.818182 17.4538H17.1818C17.6337 17.4538 18 17.0875 18 16.6357V9.54474C18 9.09289 17.6337 8.72656 17.1818 8.72656Z" fill="white"/>
    </g>
    <defs>
        <clipPath id="clip0_661_388">
            <rect width="18" height="18" fill="white"/>
        </clipPath>
    </defs>
</svg>