<svg width="25" height="25" viewBox="0 0 25 25" fill="none" xmlns="http://www.w3.org/2000/svg">
<g id="fi_3128208">
<g id="_x30_1._Facebook">
<path id="Icon_11_" d="M10.1964 13.7478C10.1244 13.7478 8.54041 13.7478 7.82041 13.7478C7.43641 13.7478 7.31641 13.6038 7.31641 13.2438C7.31641 12.2838 7.31641 11.2998 7.31641 10.3398C7.31641 9.95583 7.46041 9.83583 7.82041 9.83583H10.1964C10.1964 9.76383 10.1964 8.37183 10.1964 7.72383C10.1964 6.76383 10.3644 5.85183 10.8444 5.01183C11.3484 4.14783 12.0684 3.57183 12.9804 3.23583C13.5804 3.01983 14.1804 2.92383 14.8284 2.92383H17.1804C17.5164 2.92383 17.6604 3.06783 17.6604 3.40383V6.13983C17.6604 6.47583 17.5164 6.61983 17.1804 6.61983C16.5324 6.61983 15.8844 6.61983 15.2364 6.64383C14.5884 6.64383 14.2524 6.95583 14.2524 7.62783C14.2284 8.34783 14.2524 9.04383 14.2524 9.78783H17.0364C17.4204 9.78783 17.5644 9.93183 17.5644 10.3158V13.2198C17.5644 13.6038 17.4444 13.7238 17.0364 13.7238C16.1724 13.7238 14.3244 13.7238 14.2524 13.7238V21.5478C14.2524 21.9558 14.1324 22.0998 13.7004 22.0998C12.6924 22.0998 11.7084 22.0998 10.7004 22.0998C10.3404 22.0998 10.1964 21.9558 10.1964 21.5958C10.1964 19.0758 10.1964 13.8198 10.1964 13.7478Z" fill="black"/>
</g>
</g>
</svg>
