<svg width="1634" height="395" viewBox="0 0 1634 395" fill="none" xmlns="http://www.w3.org/2000/svg">
<path d="M1633 394L918.406 319.69L956.483 277.762C956.483 277.762 958.006 201.074 958.222 199.552C958.657 198.031 920.145 230.619 920.145 230.619L953.87 198.465L907.523 192.598L868.358 220.623L849.863 216.277L888.375 193.248L901.867 192.38L843.337 186.079L793.727 213.888L916.447 230.616L913.834 319.037L788.94 297.529L789.81 212.804L803.736 203.029C803.736 203.029 802.431 154.15 803.736 154.15C805.041 153.931 832.023 145.678 832.023 145.678L832.893 70.5118L774.798 76.3785L822.668 69.2092L703.866 59.216L647.729 68.122L773.497 79.2025L773.062 155.675L799.826 154.372L773.281 161.108L649.037 142.858L647.514 74.4264L644.901 145.685L674.274 149.162L671.88 152.639L713.44 156.116L670.791 156.984L670.572 274.951L785.892 285.598L667.306 280.165L667.525 252.575L607.906 299.064L607.036 183.272L667.744 151.555L632.495 149.6L641.634 143.299L630.971 143.733L627.489 166.978V82.2521L641.415 78.5597C641.415 78.5597 570.045 85.5102 571.568 85.2949C573.092 85.0795 572.873 4.69576 572.873 4.69576L669.699 4.47696L671.658 60.5254L672.527 1.86838L486.926 1L487.36 78.3409L566.781 85.2914C566.781 85.2914 568.086 10.5591 568.74 9.69068C569.175 8.8223 568.305 88.553 568.305 88.553L509.775 82.2521L536.539 87.6846L505.858 88.1188L505.639 83.7735L501.071 88.1188L503.245 167.85H624.226L595.069 178.93L600.075 183.275L473.003 173.716L498.027 162.636L467.781 172.41L469.085 280.599L603.338 299.499L471.479 286.247L468.651 282.77L468.216 286.463L1 319.037" stroke="white" stroke-opacity="0.24" stroke-linecap="round" stroke-linejoin="round"/>
</svg>
