<svg width="20" height="21" viewBox="0 0 20 21" fill="none" xmlns="http://www.w3.org/2000/svg">
<g id="icon" clip-path="url(#clip0_563_40)">
<g id="Group">
<g id="Group_2">
<path id="Vector" d="M10 0.5C4.47301 0.5 0 4.9725 0 10.5C0 16.0269 4.4725 20.5 10 20.5C15.527 20.5 20 16.0275 20 10.5C20 4.97301 15.5275 0.5 10 0.5ZM10 19.1046C5.25539 19.1046 1.39535 15.2446 1.39535 10.5C1.39535 5.75535 5.25539 1.89535 10 1.89535C14.7446 1.89535 18.6046 5.75535 18.6046 10.5C18.6046 15.2446 14.7446 19.1046 10 19.1046Z" fill="#BFBFBF"/>
</g>
</g>
<g id="Group_3">
<g id="Group_4">
<path id="Vector_2" d="M9.70352 13.1523C9.15066 13.1523 8.70312 13.613 8.70312 14.1659C8.70312 14.7056 9.1375 15.1795 9.70352 15.1795C10.2695 15.1795 10.717 14.7056 10.717 14.1659C10.717 13.613 10.2563 13.1523 9.70352 13.1523Z" fill="#BFBFBF"/>
</g>
</g>
<g id="Group_5">
<g id="Group_6">
<path id="Vector_3" d="M9.87437 5.47852C8.09734 5.47852 7.28125 6.5316 7.28125 7.24238C7.28125 7.75574 7.71563 7.9927 8.07102 7.9927C8.78184 7.9927 8.49227 6.9791 9.83488 6.9791C10.493 6.9791 11.0196 7.26871 11.0196 7.87422C11.0196 8.585 10.2824 8.99305 9.84805 9.3616C9.46629 9.69063 8.96613 10.2304 8.96613 11.3624C8.96613 12.0468 9.15043 12.2443 9.69008 12.2443C10.335 12.2443 10.4667 11.9547 10.4667 11.7046C10.4667 11.0201 10.4798 10.6252 11.2038 10.0592C11.5592 9.78281 12.678 8.8877 12.678 7.65039C12.678 6.41309 11.5592 5.47852 9.87437 5.47852Z" fill="#BFBFBF"/>
</g>
</g>
</g>
<defs>
<clipPath id="clip0_563_40">
<rect width="20" height="20" fill="white" transform="translate(0 0.5)"/>
</clipPath>
</defs>
</svg>
