<svg width="25" height="25" viewBox="0 0 25 25" fill="none" xmlns="http://www.w3.org/2000/svg">
<g id="fi_6433684">
<g id="Group">
<path id="Vector" d="M12.5 8.83203C10.476 8.83203 8.83203 10.476 8.83203 12.5C8.83203 14.524 10.476 16.172 12.5 16.172C14.524 16.172 16.172 14.524 16.172 12.5C16.172 10.476 14.524 8.83203 12.5 8.83203Z" fill="black"/>
<path id="Vector_2" d="M18.036 2.5H6.964C4.504 2.5 2.5 4.504 2.5 6.964V18.036C2.5 20.5 4.504 22.5 6.964 22.5H18.036C20.5 22.5 22.5 20.5 22.5 18.036V6.964C22.5 4.504 20.5 2.5 18.036 2.5ZM12.5 18.98C8.928 18.98 6.02 16.072 6.02 12.5C6.02 8.928 8.928 6.024 12.5 6.024C16.072 6.024 18.98 8.928 18.98 12.5C18.98 16.072 16.072 18.98 12.5 18.98ZM19.116 7.2C18.36 7.2 17.744 6.588 17.744 5.832C17.744 5.076 18.36 4.46 19.116 4.46C19.872 4.46 20.488 5.076 20.488 5.832C20.488 6.588 19.872 7.2 19.116 7.2Z" fill="black"/>
</g>
</g>
</svg>
