<svg width="25" height="25" viewBox="0 0 25 25" fill="none" xmlns="http://www.w3.org/2000/svg">
<path d="M4.63867 2.97852H1.70898C0.76665 2.97852 0 3.74517 0 4.6875V7.61719C0 8.02168 0.32793 8.34961 0.732422 8.34961C1.13691 8.34961 1.46484 8.02168 1.46484 7.61719V4.6875C1.46484 4.55288 1.57437 4.44336 1.70898 4.44336H4.63867C5.04316 4.44336 5.37109 4.11543 5.37109 3.71094C5.37109 3.30645 5.04316 2.97852 4.63867 2.97852Z" fill="white"/>
<path d="M4.63867 20.5566H1.70898C1.57437 20.5566 1.46484 20.4471 1.46484 20.3125V17.3828C1.46484 16.9783 1.13691 16.6504 0.732422 16.6504C0.32793 16.6504 0 16.9783 0 17.3828V20.3125C0 21.2548 0.76665 22.0215 1.70898 22.0215H4.63867C5.04316 22.0215 5.37109 21.6936 5.37109 21.2891C5.37109 20.8846 5.04316 20.5566 4.63867 20.5566Z" fill="white"/>
<path d="M24.2676 16.6504C23.8631 16.6504 23.5352 16.9783 23.5352 17.3828V20.3125C23.5352 20.4471 23.4256 20.5566 23.291 20.5566H20.3613C19.9568 20.5566 19.6289 20.8846 19.6289 21.2891C19.6289 21.6936 19.9568 22.0215 20.3613 22.0215H23.291C24.2333 22.0215 25 21.2548 25 20.3125V17.3828C25 16.9783 24.6721 16.6504 24.2676 16.6504Z" fill="white"/>
<path d="M23.291 2.97852H20.3613C19.9568 2.97852 19.6289 3.30645 19.6289 3.71094C19.6289 4.11543 19.9568 4.44336 20.3613 4.44336H23.291C23.4256 4.44336 23.5352 4.55288 23.5352 4.6875V7.61719C23.5352 8.02168 23.8631 8.34961 24.2676 8.34961C24.6721 8.34961 25 8.02168 25 7.61719V4.6875C25 3.74517 24.2333 2.97852 23.291 2.97852Z" fill="white"/>
<path d="M4.39453 18.3105V6.68945C4.39453 6.28496 4.0666 5.95703 3.66211 5.95703C3.25762 5.95703 2.92969 6.28496 2.92969 6.68945V18.3105C2.92969 18.715 3.25762 19.043 3.66211 19.043C4.0666 19.043 4.39453 18.715 4.39453 18.3105Z" fill="white"/>
<path d="M6.5918 5.95703C6.1873 5.95703 5.85938 6.28496 5.85938 6.68945V14.4043C5.85938 14.8088 6.1873 15.1367 6.5918 15.1367C6.99629 15.1367 7.32422 14.8088 7.32422 14.4043V6.68945C7.32422 6.28496 6.99629 5.95703 6.5918 5.95703Z" fill="white"/>
<path d="M9.52148 5.95703C9.11699 5.95703 8.78906 6.28496 8.78906 6.68945V18.3105C8.78906 18.715 9.11699 19.043 9.52148 19.043C9.92598 19.043 10.2539 18.715 10.2539 18.3105V6.68945C10.2539 6.28496 9.92598 5.95703 9.52148 5.95703Z" fill="white"/>
<path d="M12.4512 5.95703C12.0467 5.95703 11.7188 6.28496 11.7188 6.68945V14.4043C11.7188 14.8088 12.0467 15.1367 12.4512 15.1367C12.8557 15.1367 13.1836 14.8088 13.1836 14.4043V6.68945C13.1836 6.28496 12.8557 5.95703 12.4512 5.95703Z" fill="white"/>
<path d="M15.3809 5.95703C14.9764 5.95703 14.6484 6.28496 14.6484 6.68945V14.4043C14.6484 14.8088 14.9764 15.1367 15.3809 15.1367C15.7854 15.1367 16.1133 14.8088 16.1133 14.4043V6.68945C16.1133 6.28496 15.7854 5.95703 15.3809 5.95703Z" fill="white"/>
<path d="M18.3105 5.95703C17.9061 5.95703 17.5781 6.28496 17.5781 6.68945V14.4043C17.5781 14.8088 17.9061 15.1367 18.3105 15.1367C18.715 15.1367 19.043 14.8088 19.043 14.4043V6.68945C19.043 6.28496 18.715 5.95703 18.3105 5.95703Z" fill="white"/>
<path d="M21.9727 18.3105V6.68945C21.9727 6.28496 21.6447 5.95703 21.2402 5.95703C20.8357 5.95703 20.5078 6.28496 20.5078 6.68945V18.3105C20.5078 18.715 20.8357 19.043 21.2402 19.043C21.6447 19.043 21.9727 18.715 21.9727 18.3105Z" fill="white"/>
<path d="M6.5918 16.748C6.1873 16.748 5.85938 17.076 5.85938 17.4805V18.3105C5.85938 18.715 6.1873 19.043 6.5918 19.043C6.99629 19.043 7.32422 18.715 7.32422 18.3105V17.4805C7.32422 17.076 6.99629 16.748 6.5918 16.748Z" fill="white"/>
<path d="M12.4512 16.748C12.0467 16.748 11.7188 17.076 11.7188 17.4805V18.3105C11.7188 18.715 12.0467 19.043 12.4512 19.043C12.8557 19.043 13.1836 18.715 13.1836 18.3105V17.4805C13.1836 17.076 12.8557 16.748 12.4512 16.748Z" fill="white"/>
<path d="M15.3809 16.748C14.9764 16.748 14.6484 17.076 14.6484 17.4805V18.3105C14.6484 18.715 14.9764 19.043 15.3809 19.043C15.7854 19.043 16.1133 18.715 16.1133 18.3105V17.4805C16.1133 17.076 15.7854 16.748 15.3809 16.748Z" fill="white"/>
<path d="M18.3105 16.748C17.9061 16.748 17.5781 17.076 17.5781 17.4805V18.3105C17.5781 18.715 17.9061 19.043 18.3105 19.043C18.715 19.043 19.043 18.715 19.043 18.3105V17.4805C19.043 17.076 18.715 16.748 18.3105 16.748Z" fill="white"/>
</svg>
