<svg width="25" height="25" viewBox="0 0 25 25" fill="none" xmlns="http://www.w3.org/2000/svg">
<path d="M22.3145 4.93164H17.4225L16.9467 3.50439C16.6471 2.60571 15.8094 2.00195 14.8622 2.00195H10.1378C9.19063 2.00195 8.35288 2.60571 8.05332 3.50439L7.57754 4.93164H6.39648V3.71094C6.39648 2.7686 5.62983 2.00195 4.6875 2.00195H3.71094C2.7686 2.00195 2.00195 2.7686 2.00195 3.71094V5.02012C0.851172 5.32324 0 6.37256 0 7.61719V20.3125C0 21.7933 1.20474 22.998 2.68555 22.998H22.3145C23.7953 22.998 25 21.7933 25 20.3125V7.61719C25 6.13638 23.7953 4.93164 22.3145 4.93164ZM3.4668 3.71094C3.4668 3.57632 3.57632 3.4668 3.71094 3.4668H4.6875C4.82212 3.4668 4.93164 3.57632 4.93164 3.71094V4.93164H3.4668V3.71094ZM23.5352 20.3125C23.5352 20.9856 22.9875 21.5332 22.3145 21.5332H2.68555C2.01245 21.5332 1.46484 20.9856 1.46484 20.3125V7.61719C1.46484 6.94409 2.01245 6.39648 2.68555 6.39648H8.10547C8.4207 6.39648 8.70059 6.19478 8.80029 5.89565L9.44297 3.96763C9.54287 3.66807 9.82207 3.4668 10.1378 3.4668H14.8622C15.1779 3.4668 15.4572 3.66807 15.557 3.96758L16.1997 5.89565C16.2994 6.19478 16.5793 6.39648 16.8945 6.39648H22.3145C22.9875 6.39648 23.5352 6.94409 23.5352 7.61719V20.3125Z" fill="white"/>
<path d="M21.2891 9.32617C21.6936 9.32617 22.0215 8.99826 22.0215 8.59375C22.0215 8.18924 21.6936 7.86133 21.2891 7.86133C20.8846 7.86133 20.5566 8.18924 20.5566 8.59375C20.5566 8.99826 20.8846 9.32617 21.2891 9.32617Z" fill="white"/>
<path d="M5.17578 7.86133H3.71094C3.30645 7.86133 2.97852 8.18926 2.97852 8.59375C2.97852 8.99824 3.30645 9.32617 3.71094 9.32617H5.17578C5.58027 9.32617 5.9082 8.99824 5.9082 8.59375C5.9082 8.18926 5.58027 7.86133 5.17578 7.86133Z" fill="white"/>
<path d="M12.5 20.0684C8.86528 20.0684 5.9082 17.1113 5.9082 13.4766C5.9082 9.84185 8.86528 6.88477 12.5 6.88477C16.1347 6.88477 19.0918 9.84185 19.0918 13.4766C19.0918 17.1113 16.1347 20.0684 12.5 20.0684ZM12.5 8.34961C9.673 8.34961 7.37305 10.6496 7.37305 13.4766C7.37305 16.3036 9.673 18.6035 12.5 18.6035C15.327 18.6035 17.627 16.3036 17.627 13.4766C17.627 10.6496 15.327 8.34961 12.5 8.34961Z" fill="white"/>
<path d="M12.5 17.1387C10.4807 17.1387 8.83789 15.4958 8.83789 13.4766C8.83789 11.4573 10.4807 9.81445 12.5 9.81445C14.5193 9.81445 16.1621 11.4573 16.1621 13.4766C16.1621 15.4958 14.5193 17.1387 12.5 17.1387ZM12.5 11.2793C11.2884 11.2793 10.3027 12.265 10.3027 13.4766C10.3027 14.6881 11.2884 15.6738 12.5 15.6738C13.7116 15.6738 14.6973 14.6881 14.6973 13.4766C14.6973 12.265 13.7116 11.2793 12.5 11.2793Z" fill="white"/>
</svg>
