<svg width="80" height="80" viewBox="0 0 80 80" fill="none" xmlns="http://www.w3.org/2000/svg">
<g id="icon">
<g id="shape">
<g id="Group">
<path id="Ellipse 4" d="M78.1885 40C78.1885 61.8231 60.7896 79.5 39.3443 79.5C17.8989 79.5 0.5 61.8231 0.5 40C0.5 18.1769 17.8989 0.5 39.3443 0.5C60.7896 0.5 78.1885 18.1769 78.1885 40Z" stroke="#007B50"/>
<path id="Ellipse 8" opacity="0.3" d="M71.1916 40.0002C71.1916 57.8959 56.9243 72.3891 39.3419 72.3891C21.7596 72.3891 7.49219 57.8959 7.49219 40.0002C7.49219 22.1045 21.7596 7.61133 39.3419 7.61133C56.9243 7.61133 71.1916 22.1045 71.1916 40.0002Z" stroke="#007B50"/>
</g>
<g id="Group_2">
<ellipse id="Ellipse 5" cx="15.7407" cy="8" rx="1.96721" ry="2" fill="#007B50"/>
<ellipse id="Ellipse 6" cx="19.6782" cy="74" rx="1.96721" ry="2" fill="#007B50"/>
<ellipse id="Ellipse 7" cx="78.0375" cy="34.668" rx="1.96721" ry="2" fill="#007B50"/>
</g>
</g>
</g>
</svg>
