<svg width="36" height="36" viewBox="0 0 36 36" fill="none" xmlns="http://www.w3.org/2000/svg">
<g id="fi_1170785" clip-path="url(#clip0_545_918)">
<path id="Vector" d="M2.67368 13.5743L0.6229 19.7266C0.518759 20.0393 0.571097 20.383 0.763891 20.6503C0.956419 20.9178 1.26617 21.0762 1.59569 21.0762H4.67186V34.4746C4.67186 35.041 5.13088 35.5 5.69725 35.5H30.4433C31.0097 35.5 31.4687 35.041 31.4687 34.4746V21.0762H34.5449C34.8744 21.0762 35.1842 20.9178 35.3767 20.6503C35.5695 20.383 35.6218 20.0393 35.5177 19.7266L33.4669 13.5743C33.3273 13.1556 32.9355 12.873 32.4941 12.873H19.9862L23.025 8.31487C23.2349 8.00031 23.2544 7.59576 23.076 7.26224C22.8974 6.92899 22.55 6.7207 22.1719 6.7207H21.1465V1.52539C21.1465 0.959023 20.6874 0.5 20.1211 0.5H16.0195C15.4531 0.5 14.9941 0.959023 14.9941 1.52539V6.7207H13.9687C13.5906 6.7207 13.2432 6.92899 13.0646 7.26224C12.8862 7.59576 12.9057 8.00031 13.1156 8.31487L16.1544 12.873H3.64647C3.20507 12.873 2.81334 13.1556 2.67368 13.5743ZM29.418 33.4492H6.72264V21.0762H29.418V33.4492ZM15.8847 8.77148H16.0195C16.5859 8.77148 17.0449 8.31246 17.0449 7.74609V2.55078H19.0957V7.74609C19.0957 8.31246 19.5547 8.77148 20.1211 8.77148H20.2559L18.0703 12.0498L15.8847 8.77148ZM31.755 14.9238L33.1222 19.0254H3.01842L4.3856 14.9238H31.755Z" fill="white"/>
<path id="Vector_2" d="M9.79492 31.3984H16.0156C16.582 31.3984 17.041 30.9394 17.041 30.373C17.041 29.8067 16.582 29.3477 16.0156 29.3477H9.79492C9.22855 29.3477 8.76953 29.8067 8.76953 30.373C8.76953 30.9394 9.22855 31.3984 9.79492 31.3984Z" fill="white"/>
</g>
<defs>
<clipPath id="clip0_545_918">
<rect width="35" height="35" fill="white" transform="translate(0.5 0.5)"/>
</clipPath>
</defs>
</svg>
