<svg width="35" height="36" viewBox="0 0 35 36" fill="none" xmlns="http://www.w3.org/2000/svg">
<g id="fi_2110029">
<path id="Vector" d="M33.9746 26.2031H32.8809V14.9238C32.8809 14.3575 32.4218 13.8984 31.8555 13.8984H24.6777V2.61914C24.6777 2.05285 24.2186 1.59375 23.6523 1.59375H11.3477C10.7814 1.59375 10.3223 2.05285 10.3223 2.61914V13.8984H3.14453C2.57824 13.8984 2.11914 14.3575 2.11914 14.9238V26.2031H1.02539C0.459102 26.2031 0 26.6622 0 27.2285V31.3301C0 31.8964 0.459102 32.3555 1.02539 32.3555H4.16992V33.3809C4.16992 33.9471 4.62902 34.4062 5.19531 34.4062H9.29688C9.86316 34.4062 10.3223 33.9471 10.3223 33.3809V32.3555H24.6777V33.3809C24.6777 33.9471 25.1368 34.4062 25.7031 34.4062H29.8047C30.371 34.4062 30.8301 33.9471 30.8301 33.3809V32.3555H33.9746C34.5409 32.3555 35 31.8964 35 31.3301V27.2285C35 26.6622 34.5409 26.2031 33.9746 26.2031ZM30.8301 26.2031H20.5762V15.9492H22.627V19.0254C22.627 19.5917 23.0861 20.0508 23.6523 20.0508H27.7539C28.3202 20.0508 28.7793 19.5917 28.7793 19.0254V15.9492H30.8301V26.2031ZM16.4746 26.2031V15.9492H18.5254V26.2031H16.4746ZM24.6777 15.9492H26.7285V18H24.6777V15.9492ZM16.4746 3.64453H18.5254V5.69531H16.4746V3.64453ZM14.4238 3.64453V6.7207C14.4238 7.28699 14.8829 7.74609 15.4492 7.74609H19.5508C20.1171 7.74609 20.5762 7.28699 20.5762 6.7207V3.64453H22.627V13.8984C19.4396 13.8984 15.5636 13.8984 12.373 13.8984V3.64453H14.4238ZM8.27148 15.9492H10.3223V18H8.27148V15.9492ZM4.16992 15.9492H6.2207V19.0254C6.2207 19.5917 6.6798 20.0508 7.24609 20.0508H11.3477C11.9139 20.0508 12.373 19.5917 12.373 19.0254V15.9492H14.4238V26.2031H4.16992V15.9492ZM32.9492 30.3047H29.8047C29.2384 30.3047 28.7793 30.7638 28.7793 31.3301V32.3555H26.7285V31.3301C26.7285 30.7638 26.2694 30.3047 25.7031 30.3047H9.29688C8.73059 30.3047 8.27148 30.7638 8.27148 31.3301V32.3555H6.2207V31.3301C6.2207 30.7638 5.7616 30.3047 5.19531 30.3047H2.05078V28.2539H32.9492V30.3047Z" fill="#006743"/>
</g>
</svg>
