<svg width="35" height="36" viewBox="0 0 35 36" fill="none" xmlns="http://www.w3.org/2000/svg">
<g id="fi_3467138" clip-path="url(#clip0_545_992)">
<g id="Group">
<path id="Vector" d="M34.3641 8.04675L17.8895 0.5912C17.6203 0.469316 17.3115 0.469657 17.0426 0.591884L0.636309 8.04743C0.270176 8.21382 0.0351562 8.57879 0.0351562 8.98095V34.4746C0.0351562 35.0408 0.494258 35.4999 1.06055 35.4999H33.9414C34.5077 35.4999 34.9668 35.0408 34.9668 34.4746V8.98095C34.9667 8.57824 34.731 8.21272 34.3641 8.04675ZM23.9609 29.3476C24.5272 29.3476 24.9863 28.8885 24.9863 28.3222V27.2968H27.037V33.4492H20.8847V27.2968H22.9355V28.3222C22.9355 28.8886 23.3946 29.3476 23.9609 29.3476ZM27.037 25.246H19.8593C19.293 25.246 18.8339 25.7051 18.8339 26.2714V33.4492H16.0995C16.0995 31.8209 16.0995 19.5524 16.0995 18.0683C16.0995 17.502 15.6404 17.0429 15.0742 17.0429H7.89642V14.9921H27.037V25.246ZM7.89642 25.246V19.0937H9.9472V20.1191C9.9472 20.6854 10.4063 21.1445 10.9726 21.1445C11.5389 21.1445 11.998 20.6854 11.998 20.1191V19.0937H14.0488V25.246H7.89642ZM7.89642 27.2968H9.9472V28.3222C9.9472 28.8885 10.4063 29.3476 10.9726 29.3476C11.5389 29.3476 11.998 28.8885 11.998 28.3222V27.2968H14.0488V33.4492H7.89642V27.2968ZM32.9159 33.4492H29.0878V13.9667C29.0878 13.4004 28.6287 12.9413 28.0624 12.9413H6.87103C6.30474 12.9413 5.84563 13.4004 5.84563 13.9667V33.4492H2.08587V9.6413L17.4676 2.65128L32.9159 9.64246V33.4492Z" fill="#006743"/>
<path id="Vector_2" d="M13.3633 8.49805C13.3633 9.06434 13.8224 9.52344 14.3887 9.52344H20.541C21.1073 9.52344 21.5664 9.06434 21.5664 8.49805C21.5664 7.93176 21.1073 7.47266 20.541 7.47266H14.3887C13.8224 7.47266 13.3633 7.93176 13.3633 8.49805Z" fill="#006743"/>
</g>
</g>
<defs>
<clipPath id="clip0_545_992">
<rect width="35" height="35" fill="white" transform="translate(0 0.5)"/>
</clipPath>
</defs>
</svg>
