<svg width="25" height="19" viewBox="0 0 25 19" fill="none" xmlns="http://www.w3.org/2000/svg">
<g id="Group">
<g id="Group_2">
<path id="Vector" d="M24.5 2.24931C23.6075 2.63077 22.6565 2.88362 21.665 3.00638C22.685 2.413 23.4635 1.48054 23.8295 0.356615C22.8785 0.909077 21.8285 1.29931 20.7095 1.51708C19.8065 0.580231 18.5195 0 17.1155 0C14.3915 0 12.1985 2.15431 12.1985 4.79531C12.1985 5.17531 12.2315 5.54069 12.3125 5.88854C8.222 5.69415 4.6025 3.78392 2.171 0.874C1.7465 1.59162 1.4975 2.413 1.4975 3.29723C1.4975 4.95754 2.375 6.42931 3.683 7.28138C2.8925 7.26677 2.117 7.04315 1.46 6.69092C1.46 6.70554 1.46 6.72454 1.46 6.74354C1.46 9.07323 3.1655 11.0083 5.402 11.4541C5.0015 11.5608 4.565 11.6119 4.112 11.6119C3.797 11.6119 3.479 11.5944 3.1805 11.5301C3.818 13.4286 5.627 14.8244 7.778 14.8697C6.104 16.1456 3.9785 16.9144 1.6775 16.9144C1.274 16.9144 0.887 16.8968 0.5 16.8486C2.6795 18.2181 5.2625 19 8.048 19C17.102 19 22.052 11.6923 22.052 5.358C22.052 5.14608 22.0445 4.94146 22.034 4.73831C23.0105 4.06308 23.831 3.21977 24.5 2.24931Z" fill="black"/>
</g>
</g>
</svg>
